<svg{{ with .size }} height="{{ . }}" {{ end }} style="enable-background:new 0 0 150 150;" version="1.1" viewBox="0 -10 160 160" width="{{ .size }}" xml:space="preserve" xmlns="http://www.w3.org/2000/svg" xmlns:xlink="http://www.w3.org/1999/xlink">
<path d="M 69.757229,0.06347917 A 69.623709,69.890975 0 0 0 0.13357155,69.954302 69.623709,69.890975 0 0 0 69.757229,139.84564 69.623709,69.890975 0 0 0 139.38088,69.954302 69.623709,69.890975 0 0 0 69.757229,0.06347917 Z m -0.13901,16.42121983 2.138371,0.400492 30.73611,15.368053 0.8015,1.604036 -0.53434,1.068671 -32.473465,16.838247 0.53485,0.935345 31.804775,15.902386 1.60352,2.271697 0.80202,2.004528 v 31.404286 l -0.80202,1.47019 -2.00453,2.13786 -30.335097,15.36805 -2.271694,0.13384 H 67.480365 L 35.407904,106.82182 35.67507,105.21778 68.281867,88.914386 68.148541,87.310865 37.145264,71.675644 34.605886,69.938284 33.670542,67.265577 V 37.197645 l 0.935344,-2.93987 1.603518,-1.870689 31.137119,-15.501895 z" style="fill-rule:evenodd;clip-rule:evenodd;fill:{{ .fill }};"/></svg>
