<svg{{ with .size }} height="{{ . }}" {{ end }} style="enable-background:new 0 -50 1100 1100;" version="1.1" viewBox="0 -50 1100 1100" width="{{ .size }}" xml:space="preserve" xmlns="http://www.w3.org/2000/svg" xmlns:xlink="http://www.w3.org/1999/xlink">
<path d="M500,10C229.4,10,10,229.4,10,500c0,270.6,219.4,490,490,490s490-219.4,490-490C990,229.4,770.6,10,500,10z M380.1,653.3l0.1-205.5c-29,0-50.6,0-76.7,0c0-33.3,0-62.7,0-96c57.9-16.5,107.9-78.1,126.3-143.3c7.1-28.4,7.8-47.7,7.8-47.7s88.8,0,108.9,0c0,58.8,0,117.6,0,175c43.6,0,84.3,0,127.4,0v110.5c-40.7,0-82.3,0-128.1,0c0,22.1,0,45,0,63.9c0,42.9-0.2,85.9,0.1,128.8c0,113.8,109.3,67.1,119.2,64.9l31.5,103.9C669.3,836.7,380.1,907.1,380.1,653.3z" style="fill-rule:evenodd;clip-rule:evenodd;fill:{{ .fill }};"/></svg>
